<svg xmlns="http://www.w3.org/2000/svg" version="1.1" xmlns:xlink="http://www.w3.org/1999/xlink" xmlns:svgjs="http://svgjs.dev/svgjs" width="1000" height="282" viewBox="0 0 1000 282"><g transform="matrix(1,0,0,1,-0.6060606060606233,0.35133598124787113)"><svg viewBox="0 0 396 112" data-background-color="#01071a" preserveAspectRatio="xMidYMid meet" height="282" width="1000" xmlns="http://www.w3.org/2000/svg" xmlns:xlink="http://www.w3.org/1999/xlink"><g id="tight-bounds" transform="matrix(1,0,0,1,0.2400000000000091,-0.1393246346375463)"><svg viewBox="0 0 395.52 112.2788435363954" height="112.2788435363954" width="395.52"><g><svg viewBox="0 0 618.854375105492 175.67823006240718" height="112.2788435363954" width="395.52"><g><rect width="7.642471821978437" height="85.1696194947994" x="195.68543254535004" y="45.25430528380389" fill="#915eff" opacity="1" stroke-width="0" stroke="transparent" fill-opacity="1" class="rect-r$-0" data-fill-palette-color="primary" rx="1%" id="r$-0" data-palette-color="#915eff"></rect></g><g transform="matrix(1,0,0,1,223.33437510549192,45.46617000891533)"><svg viewBox="0 0 395.52 84.74589004457653" height="84.74589004457653" width="395.52"><g id="textblocktransform"><svg viewBox="0 0 395.52 84.74589004457653" height="84.74589004457653" width="395.52" id="textblock"><g><svg viewBox="0 0 395.52 84.74589004457653" height="84.74589004457653" width="395.52"><g transform="matrix(1,0,0,1,0,0)"><svg width="395.52" viewBox="1.3 -35.55 174.98999999999998 36.05" height="84.74589004457653" data-palette-color="#915eff"><g class="wordmark-text-0" data-fill-palette-color="primary" id="text-0"><path d="M8.8-34.05L8.8-35 25.05-35 25.05-34.05 22.3-34.05 22.3-12.45Q22.3-5.7 19.25-2.63 16.2 0.45 10.1 0.45L10.1 0.45Q6.05 0.45 3.68-1.1 1.3-2.65 1.3-5.45L1.3-5.45Q1.3-7.6 2.5-8.83 3.7-10.05 5.78-10.05 7.85-10.05 8.88-9 9.9-7.95 9.9-6.48 9.9-5 9.35-3.5L9.35-3.5 7.4-3.5Q6.95-2.75 6.95-2.08 6.95-1.4 7.63-0.93 8.3-0.45 9.4-0.45L9.4-0.45Q11.4-0.45 11.98-2.02 12.55-3.6 12.55-8.85L12.55-8.85 12.55-34.05 8.8-34.05ZM43.9-0.95L47.45-0.95 43.8-11.75 33.9-11.75 30.05-0.95 33.8-0.95 33.8 0 26.15 0 26.15-0.95 28.5-0.95 41.25-35.3 45.35-35.3 57.95-0.95 60.25-0.95 60.25 0 43.9 0 43.9-0.95ZM43.4-12.85L39.05-25.95 34.35-12.85 43.4-12.85ZM76.95-17.7L76.95-17.7 74.3-17.7 74.3-0.95 77.55-0.95 77.55 0 61.3 0 61.3-0.95 64.55-0.95 64.55-34.05 61.3-34.05 61.3-35 76.4-35Q82.9-35 85.62-34.33 88.34-33.65 89.45-32.7L89.45-32.7Q91.84-30.75 91.84-26.5 91.84-22.25 89.75-20.43 87.65-18.6 83.34-18.25L83.34-18.25 83.34-18.1Q87.4-17.55 89-15.7 90.59-13.85 90.59-9.5L90.59-9.5 90.59-6.85Q90.59-4.25 90.87-3.35 91.15-2.45 92.05-2.45 92.94-2.45 93.47-3.28 94-4.1 94.44-6.75L94.44-6.75 95.3-6.65Q94.75-2.4 93.37-0.95 92 0.5 87.9 0.5 83.8 0.5 82.07-1.43 80.34-3.35 80.34-8.65L80.34-8.65 80.34-12.3Q80.34-15.1 79.62-16.4 78.9-17.7 76.95-17.7ZM75.95-34.05L74.3-34.05 74.3-18.65 75.9-18.65Q78.75-18.65 80.12-20.4 81.5-22.15 81.5-26.1L81.5-26.1 81.5-27.55Q81.5-31.5 80.17-32.77 78.84-34.05 75.95-34.05L75.95-34.05ZM109.44-34.05L117.84-9.05 126.54-34.05 122.64-34.05 122.64-35 130.29-35 130.29-34.05 127.94-34.05 115.89 0.5 111.69 0.5 98.94-34.05 96.64-34.05 96.64-35 112.99-35 112.99-34.05 109.44-34.05ZM131.84-34.05L131.84-35 147.09-35 147.09-34.05 144.34-34.05 144.34-0.95 147.09-0.95 147.09 0 131.84 0 131.84-0.95 134.59-0.95 134.59-34.05 131.84-34.05ZM164.59-0.55L164.59-0.55Q167.09-0.55 169.01-1.9 170.94-3.25 170.94-5.98 170.94-8.7 168.86-10.15 166.79-11.6 162.96-12.68 159.14-13.75 157.41-14.55 155.69-15.35 154.14-16.65L154.14-16.65Q151.04-19.25 151.04-24.7L151.04-24.7Q151.04-29.15 154.21-32.35 157.39-35.55 162.89-35.55L162.89-35.55Q165.54-35.55 168.41-34.77 171.29-34 171.99-34 172.69-34 173.24-35L173.24-35 173.79-35 174.14-24.9 173.34-24.9Q170.94-29.25 168.31-31.88 165.69-34.5 162.61-34.5 159.54-34.5 157.84-33.08 156.14-31.65 156.14-29.28 156.14-26.9 158.16-25.63 160.19-24.35 163.14-23.55 166.09-22.75 167.01-22.45 167.94-22.15 169.31-21.63 170.69-21.1 171.56-20.53 172.44-19.95 173.41-19.07 174.39-18.2 174.94-17.15L174.94-17.15Q176.29-14.75 176.29-11.45L176.29-11.45Q176.29-6.05 172.91-2.78 169.54 0.5 164.04 0.5L164.04 0.5Q161.19 0.5 157.51-0.25 153.84-1 153.44-1L153.44-1Q152.74-1 152.09 0.5L152.09 0.5 151.39 0.5 150.89-11.4 151.74-11.4Q153.94-7.05 157.36-3.8 160.79-0.55 164.59-0.55Z" fill="#915eff" data-fill-palette-color="primary"></path></g></svg></g></svg></g></svg></g></svg></g><g><svg viewBox="0 0 175.6789618071866 175.67823006240718" height="175.67823006240718" width="175.6789618071866"><g><svg xmlns="http://www.w3.org/2000/svg" xmlns:xlink="http://www.w3.org/1999/xlink" version="1.0" x="0" y="0" viewBox="4.667731951646829 4.685959745359883 90.30503348557724 90.30465734357294" enable-background="new 0 0 100 100" xml:space="preserve" height="175.67823006240718" width="175.6789618071866" class="icon-icon-0" data-fill-palette-color="accent" id="icon-0"><path d="M17.504 35.743c-1.334 8.611 0.522 17.134 5.093 23.382 3.514 4.801 8.413 7.905 13.796 8.739 5.677 0.88 11.253-0.429 15.703-3.685 1.248-0.912 2.36-1.946 3.326-3.076-2.222 0.978-4.814 1.267-7.626 0.831-11.717-1.816-19.673-13.464-17.735-25.964 0.934-6.03 4.384-11.497 9.713-15.397 6.768-4.952 15.953-6.97 25.201-5.537 7.474 1.158 17.67 5.964 25.56 15.213 0 0-22.835-39.421-56.115-20.356C23.689 16.04 18.653 28.323 17.504 35.743z" fill="#ffffff" data-fill-palette-color="accent"></path><path d="M82.544 65.256c1.659-8.555 0.125-17.141-4.207-23.557-3.331-4.931-8.109-8.217-13.457-9.253-5.639-1.094-11.261 0.004-15.83 3.091-1.282 0.863-2.431 1.854-3.44 2.947 2.257-0.894 4.859-1.084 7.652-0.543 11.64 2.257 19.151 14.196 16.744 26.616-1.161 5.989-4.815 11.324-10.288 15.019-6.949 4.692-16.205 6.364-25.393 4.582C26.902 82.719 16.894 77.532 9.358 67.992c0 0 21.331 40.255 55.307 22.457C75.621 84.712 81.115 72.628 82.544 65.256z" fill="#ffffff" data-fill-palette-color="accent"></path><path d="M35.726 82.88c8.611 1.334 17.133-0.522 23.381-5.094 4.801-3.514 7.905-8.413 8.74-13.796 0.879-5.676-0.429-11.253-3.686-15.702-0.912-1.248-1.946-2.36-3.076-3.327 0.979 2.222 1.267 4.815 0.831 7.626-1.816 11.717-13.463 19.673-25.965 17.736-6.029-0.934-11.497-4.385-15.395-9.713-4.952-6.768-6.971-15.954-5.538-25.202 1.158-7.474 5.964-17.67 15.213-25.559 0 0-39.421 22.835-20.356 56.115C16.022 76.695 28.305 81.73 35.726 82.88z" fill="#ffffff" data-fill-palette-color="accent"></path><path d="M90.432 35.718c-5.738-10.955-17.822-16.45-25.194-17.879-8.554-1.659-17.141-0.125-23.557 4.208-4.931 3.331-8.217 8.108-9.254 13.456-1.094 5.64 0.004 11.261 3.092 15.83 0.863 1.282 1.854 2.431 2.946 3.441-0.894-2.257-1.084-4.859-0.542-7.652 2.257-11.64 14.196-19.151 26.615-16.744 5.99 1.161 11.324 4.816 15.019 10.289 4.693 6.949 6.363 16.204 4.583 25.392-1.44 7.423-6.626 17.431-16.167 24.966C67.973 91.025 108.228 69.694 90.432 35.718z" fill="#ffffff" data-fill-palette-color="accent"></path></svg></g></svg></g></svg></g><defs></defs></svg><rect width="395.52" height="112.2788435363954" fill="none" stroke="none" visibility="hidden"></rect></g></svg></g></svg>